<svg viewBox="0 0 513 170" xmlns="http://www.w3.org/2000/svg">
<rect x="0" y="0" width="513" height="170" fill="#0d1117"/>
<circle cx="8" cy="20" r="1.1" fill="#8b949e"><animate attributeName="opacity" values="0.2;1;0.2" dur="1.2s" repeatCount="indefinite"/></circle>
<circle cx="8" cy="60" r="1.1" fill="#8b949e"><animate attributeName="opacity" values="0.2;1;0.2" dur="1.6s" repeatCount="indefinite"/></circle>
<circle cx="8" cy="100" r="1.1" fill="#8b949e"><animate attributeName="opacity" values="0.2;1;0.2" dur="2s" repeatCount="indefinite"/></circle>
<circle cx="505" cy="25" r="1.1" fill="#8b949e"><animate attributeName="opacity" values="0.2;1;0.2" dur="1.2s" repeatCount="indefinite"/></circle>
<circle cx="505" cy="70" r="1.1" fill="#8b949e"><animate attributeName="opacity" values="0.2;1;0.2" dur="1.6s" repeatCount="indefinite"/></circle>
<circle cx="505" cy="110" r="1.1" fill="#8b949e"><animate attributeName="opacity" values="0.2;1;0.2" dur="2s" repeatCount="indefinite"/></circle>
<circle cx="30" cy="164" r="1.1" fill="#8b949e"><animate attributeName="opacity" values="0.2;1;0.2" dur="1.2s" repeatCount="indefinite"/></circle>
<circle cx="483" cy="164" r="1.1" fill="#8b949e"><animate attributeName="opacity" values="0.2;1;0.2" dur="1.6s" repeatCount="indefinite"/></circle>
<g id="grid">
<rect x="20.00" y="15.00" width="11" height="11" rx="2" ry="2" fill="#ebedf0"/>
<rect x="20.00" y="29.00" width="11" height="11" rx="2" ry="2" fill="#ebedf0"/>
<rect x="20.00" y="43.00" width="11" height="11" rx="2" ry="2" fill="#ebedf0"/>
<rect x="20.00" y="57.00" width="11" height="11" rx="2" ry="2" fill="#ebedf0"/>
<rect x="20.00" y="71.00" width="11" height="11" rx="2" ry="2" fill="#ebedf0"/>
<rect x="20.00" y="85.00" width="11" height="11" rx="2" ry="2" fill="#ebedf0"/>
<rect x="20.00" y="99.00" width="11" height="11" rx="2" ry="2" fill="#ebedf0"/>
<rect x="34.00" y="15.00" width="11" height="11" rx="2" ry="2" fill="#ebedf0"/>
<rect x="34.00" y="29.00" width="11" height="11" rx="2" ry="2" fill="#ebedf0"/>
<rect x="34.00" y="43.00" width="11" height="11" rx="2" ry="2" fill="#ebedf0"/>
<rect x="34.00" y="57.00" width="11" height="11" rx="2" ry="2" fill="#ebedf0"/>
<rect x="34.00" y="71.00" width="11" height="11" rx="2" ry="2" fill="#ebedf0"/>
<rect x="34.00" y="85.00" width="11" height="11" rx="2" ry="2" fill="#ebedf0"/>
<rect x="34.00" y="99.00" width="11" height="11" rx="2" ry="2" fill="#ebedf0"/>
<rect x="48.00" y="15.00" width="11" height="11" rx="2" ry="2" fill="#ebedf0"/>
<rect x="48.00" y="29.00" width="11" height="11" rx="2" ry="2" fill="#ebedf0"/>
<rect x="48.00" y="43.00" width="11" height="11" rx="2" ry="2" fill="#ebedf0"/>
<rect x="48.00" y="57.00" width="11" height="11" rx="2" ry="2" fill="#ebedf0"/>
<rect x="48.00" y="71.00" width="11" height="11" rx="2" ry="2" fill="#ebedf0"/>
<rect x="48.00" y="85.00" width="11" height="11" rx="2" ry="2" fill="#ebedf0"/>
<rect x="48.00" y="99.00" width="11" height="11" rx="2" ry="2" fill="#ebedf0"/>
<rect x="62.00" y="15.00" width="11" height="11" rx="2" ry="2" fill="#ebedf0"/>
<rect x="62.00" y="29.00" width="11" height="11" rx="2" ry="2" fill="#ebedf0"/>
<rect x="62.00" y="43.00" width="11" height="11" rx="2" ry="2" fill="#ebedf0"/>
<rect x="62.00" y="57.00" width="11" height="11" rx="2" ry="2" fill="#ebedf0"/>
<rect x="62.00" y="71.00" width="11" height="11" rx="2" ry="2" fill="#ebedf0"/>
<rect x="62.00" y="85.00" width="11" height="11" rx="2" ry="2" fill="#ebedf0"/>
<rect x="62.00" y="99.00" width="11" height="11" rx="2" ry="2" fill="#ebedf0"/>
<rect x="76.00" y="15.00" width="11" height="11" rx="2" ry="2" fill="#ebedf0"/>
<rect x="76.00" y="29.00" width="11" height="11" rx="2" ry="2" fill="#ebedf0"/>
<rect x="76.00" y="43.00" width="11" height="11" rx="2" ry="2" fill="#ebedf0"/>
<rect x="76.00" y="57.00" width="11" height="11" rx="2" ry="2" fill="#ebedf0"/>
<rect x="76.00" y="71.00" width="11" height="11" rx="2" ry="2" fill="#ebedf0"/>
<rect x="76.00" y="85.00" width="11" height="11" rx="2" ry="2" fill="#9be9a8"/>
<rect x="76.00" y="99.00" width="11" height="11" rx="2" ry="2" fill="#ebedf0"/>
<rect x="90.00" y="15.00" width="11" height="11" rx="2" ry="2" fill="#ebedf0"/>
<rect x="90.00" y="29.00" width="11" height="11" rx="2" ry="2" fill="#ebedf0"/>
<rect x="90.00" y="43.00" width="11" height="11" rx="2" ry="2" fill="#ebedf0"/>
<rect x="90.00" y="57.00" width="11" height="11" rx="2" ry="2" fill="#ebedf0"/>
<rect x="90.00" y="71.00" width="11" height="11" rx="2" ry="2" fill="#ebedf0"/>
<rect x="90.00" y="85.00" width="11" height="11" rx="2" ry="2" fill="#ebedf0"/>
<rect x="90.00" y="99.00" width="11" height="11" rx="2" ry="2" fill="#ebedf0"/>
<rect x="104.00" y="15.00" width="11" height="11" rx="2" ry="2" fill="#ebedf0"/>
<rect x="104.00" y="29.00" width="11" height="11" rx="2" ry="2" fill="#ebedf0"/>
<rect x="104.00" y="43.00" width="11" height="11" rx="2" ry="2" fill="#ebedf0"/>
<rect x="104.00" y="57.00" width="11" height="11" rx="2" ry="2" fill="#ebedf0"/>
<rect x="104.00" y="71.00" width="11" height="11" rx="2" ry="2" fill="#ebedf0"/>
<rect x="104.00" y="85.00" width="11" height="11" rx="2" ry="2" fill="#ebedf0"/>
<rect x="104.00" y="99.00" width="11" height="11" rx="2" ry="2" fill="#ebedf0"/>
<rect x="118.00" y="15.00" width="11" height="11" rx="2" ry="2" fill="#ebedf0"/>
<rect x="118.00" y="29.00" width="11" height="11" rx="2" ry="2" fill="#ebedf0"/>
<rect x="118.00" y="43.00" width="11" height="11" rx="2" ry="2" fill="#ebedf0"/>
<rect x="118.00" y="57.00" width="11" height="11" rx="2" ry="2" fill="#ebedf0"/>
<rect x="118.00" y="71.00" width="11" height="11" rx="2" ry="2" fill="#ebedf0"/>
<rect x="118.00" y="85.00" width="11" height="11" rx="2" ry="2" fill="#ebedf0"/>
<rect x="118.00" y="99.00" width="11" height="11" rx="2" ry="2" fill="#ebedf0"/>
<rect x="132.00" y="15.00" width="11" height="11" rx="2" ry="2" fill="#ebedf0"/>
<rect x="132.00" y="29.00" width="11" height="11" rx="2" ry="2" fill="#ebedf0"/>
<rect x="132.00" y="43.00" width="11" height="11" rx="2" ry="2" fill="#ebedf0"/>
<rect x="132.00" y="57.00" width="11" height="11" rx="2" ry="2" fill="#ebedf0"/>
<rect x="132.00" y="71.00" width="11" height="11" rx="2" ry="2" fill="#ebedf0"/>
<rect x="132.00" y="85.00" width="11" height="11" rx="2" ry="2" fill="#ebedf0"/>
<rect x="132.00" y="99.00" width="11" height="11" rx="2" ry="2" fill="#ebedf0"/>
<rect x="146.00" y="15.00" width="11" height="11" rx="2" ry="2" fill="#ebedf0"/>
<rect x="146.00" y="29.00" width="11" height="11" rx="2" ry="2" fill="#ebedf0"/>
<rect x="146.00" y="43.00" width="11" height="11" rx="2" ry="2" fill="#ebedf0"/>
<rect x="146.00" y="57.00" width="11" height="11" rx="2" ry="2" fill="#ebedf0"/>
<rect x="146.00" y="71.00" width="11" height="11" rx="2" ry="2" fill="#ebedf0"/>
<rect x="146.00" y="85.00" width="11" height="11" rx="2" ry="2" fill="#ebedf0"/>
<rect x="146.00" y="99.00" width="11" height="11" rx="2" ry="2" fill="#ebedf0"/>
<rect x="160.00" y="15.00" width="11" height="11" rx="2" ry="2" fill="#9be9a8"/>
<rect x="160.00" y="29.00" width="11" height="11" rx="2" ry="2" fill="#9be9a8"/>
<rect x="160.00" y="43.00" width="11" height="11" rx="2" ry="2" fill="#9be9a8"/>
<rect x="160.00" y="57.00" width="11" height="11" rx="2" ry="2" fill="#ebedf0"/>
<rect x="160.00" y="71.00" width="11" height="11" rx="2" ry="2" fill="#9be9a8"/>
<rect x="160.00" y="85.00" width="11" height="11" rx="2" ry="2" fill="#ebedf0"/>
<rect x="160.00" y="99.00" width="11" height="11" rx="2" ry="2" fill="#9be9a8"/>
<rect x="174.00" y="15.00" width="11" height="11" rx="2" ry="2" fill="#9be9a8"/>
<rect x="174.00" y="29.00" width="11" height="11" rx="2" ry="2" fill="#9be9a8"/>
<rect x="174.00" y="43.00" width="11" height="11" rx="2" ry="2" fill="#ebedf0"/>
<rect x="174.00" y="57.00" width="11" height="11" rx="2" ry="2" fill="#ebedf0"/>
<rect x="174.00" y="71.00" width="11" height="11" rx="2" ry="2" fill="#ebedf0"/>
<rect x="174.00" y="85.00" width="11" height="11" rx="2" ry="2" fill="#9be9a8"/>
<rect x="174.00" y="99.00" width="11" height="11" rx="2" ry="2" fill="#9be9a8"/>
<rect x="188.00" y="15.00" width="11" height="11" rx="2" ry="2" fill="#9be9a8"/>
<rect x="188.00" y="29.00" width="11" height="11" rx="2" ry="2" fill="#ebedf0"/>
<rect x="188.00" y="43.00" width="11" height="11" rx="2" ry="2" fill="#9be9a8"/>
<rect x="188.00" y="57.00" width="11" height="11" rx="2" ry="2" fill="#9be9a8"/>
<rect x="188.00" y="71.00" width="11" height="11" rx="2" ry="2" fill="#ebedf0"/>
<rect x="188.00" y="85.00" width="11" height="11" rx="2" ry="2" fill="#9be9a8"/>
<rect x="188.00" y="99.00" width="11" height="11" rx="2" ry="2" fill="#9be9a8"/>
<rect x="202.00" y="15.00" width="11" height="11" rx="2" ry="2" fill="#9be9a8"/>
<rect x="202.00" y="29.00" width="11" height="11" rx="2" ry="2" fill="#ebedf0"/>
<rect x="202.00" y="43.00" width="11" height="11" rx="2" ry="2" fill="#9be9a8"/>
<rect x="202.00" y="57.00" width="11" height="11" rx="2" ry="2" fill="#ebedf0"/>
<rect x="202.00" y="71.00" width="11" height="11" rx="2" ry="2" fill="#ebedf0"/>
<rect x="202.00" y="85.00" width="11" height="11" rx="2" ry="2" fill="#9be9a8"/>
<rect x="202.00" y="99.00" width="11" height="11" rx="2" ry="2" fill="#ebedf0"/>
<rect x="216.00" y="15.00" width="11" height="11" rx="2" ry="2" fill="#9be9a8"/>
<rect x="216.00" y="29.00" width="11" height="11" rx="2" ry="2" fill="#ebedf0"/>
<rect x="216.00" y="43.00" width="11" height="11" rx="2" ry="2" fill="#ebedf0"/>
<rect x="216.00" y="57.00" width="11" height="11" rx="2" ry="2" fill="#ebedf0"/>
<rect x="216.00" y="71.00" width="11" height="11" rx="2" ry="2" fill="#40c463"><animate attributeName="fill" dur="20s" repeatCount="indefinite" keyTimes="0;0.2221;0.2341;0.7979;0.8099;1" values="#40c463;#40c463;#39d353;#40c463;#39d353;#40c463"/></rect>
<rect x="216.00" y="85.00" width="11" height="11" rx="2" ry="2" fill="#9be9a8"/>
<rect x="216.00" y="99.00" width="11" height="11" rx="2" ry="2" fill="#9be9a8"/>
<rect x="230.00" y="15.00" width="11" height="11" rx="2" ry="2" fill="#ebedf0"/>
<rect x="230.00" y="29.00" width="11" height="11" rx="2" ry="2" fill="#ebedf0"/>
<rect x="230.00" y="43.00" width="11" height="11" rx="2" ry="2" fill="#ebedf0"/>
<rect x="230.00" y="57.00" width="11" height="11" rx="2" ry="2" fill="#ebedf0"/>
<rect x="230.00" y="71.00" width="11" height="11" rx="2" ry="2" fill="#ebedf0"/>
<rect x="230.00" y="85.00" width="11" height="11" rx="2" ry="2" fill="#9be9a8"/>
<rect x="230.00" y="99.00" width="11" height="11" rx="2" ry="2" fill="#40c463"><animate attributeName="fill" dur="20s" repeatCount="indefinite" keyTimes="0;0.2373;0.2493;0.7827;0.7947;1" values="#40c463;#40c463;#39d353;#40c463;#39d353;#40c463"/></rect>
<rect x="244.00" y="15.00" width="11" height="11" rx="2" ry="2" fill="#9be9a8"/>
<rect x="244.00" y="29.00" width="11" height="11" rx="2" ry="2" fill="#ebedf0"/>
<rect x="244.00" y="43.00" width="11" height="11" rx="2" ry="2" fill="#9be9a8"/>
<rect x="244.00" y="57.00" width="11" height="11" rx="2" ry="2" fill="#9be9a8"/>
<rect x="244.00" y="71.00" width="11" height="11" rx="2" ry="2" fill="#9be9a8"/>
<rect x="244.00" y="85.00" width="11" height="11" rx="2" ry="2" fill="#ebedf0"/>
<rect x="244.00" y="99.00" width="11" height="11" rx="2" ry="2" fill="#40c463"><animate attributeName="fill" dur="20s" repeatCount="indefinite" keyTimes="0;0.2524;0.2644;0.7676;0.7796;1" values="#40c463;#40c463;#39d353;#40c463;#39d353;#40c463"/></rect>
<rect x="258.00" y="15.00" width="11" height="11" rx="2" ry="2" fill="#ebedf0"/>
<rect x="258.00" y="29.00" width="11" height="11" rx="2" ry="2" fill="#ebedf0"/>
<rect x="258.00" y="43.00" width="11" height="11" rx="2" ry="2" fill="#ebedf0"/>
<rect x="258.00" y="57.00" width="11" height="11" rx="2" ry="2" fill="#ebedf0"/>
<rect x="258.00" y="71.00" width="11" height="11" rx="2" ry="2" fill="#9be9a8"/>
<rect x="258.00" y="85.00" width="11" height="11" rx="2" ry="2" fill="#9be9a8"/>
<rect x="258.00" y="99.00" width="11" height="11" rx="2" ry="2" fill="#9be9a8"/>
<rect x="272.00" y="15.00" width="11" height="11" rx="2" ry="2" fill="#ebedf0"/>
<rect x="272.00" y="29.00" width="11" height="11" rx="2" ry="2" fill="#9be9a8"/>
<rect x="272.00" y="43.00" width="11" height="11" rx="2" ry="2" fill="#9be9a8"/>
<rect x="272.00" y="57.00" width="11" height="11" rx="2" ry="2" fill="#9be9a8"/>
<rect x="272.00" y="71.00" width="11" height="11" rx="2" ry="2" fill="#ebedf0"/>
<rect x="272.00" y="85.00" width="11" height="11" rx="2" ry="2" fill="#ebedf0"/>
<rect x="272.00" y="99.00" width="11" height="11" rx="2" ry="2" fill="#ebedf0"/>
<rect x="286.00" y="15.00" width="11" height="11" rx="2" ry="2" fill="#ebedf0"/>
<rect x="286.00" y="29.00" width="11" height="11" rx="2" ry="2" fill="#ebedf0"/>
<rect x="286.00" y="43.00" width="11" height="11" rx="2" ry="2" fill="#ebedf0"/>
<rect x="286.00" y="57.00" width="11" height="11" rx="2" ry="2" fill="#ebedf0"/>
<rect x="286.00" y="71.00" width="11" height="11" rx="2" ry="2" fill="#ebedf0"/>
<rect x="286.00" y="85.00" width="11" height="11" rx="2" ry="2" fill="#ebedf0"/>
<rect x="286.00" y="99.00" width="11" height="11" rx="2" ry="2" fill="#ebedf0"/>
<rect x="300.00" y="15.00" width="11" height="11" rx="2" ry="2" fill="#ebedf0"/>
<rect x="300.00" y="29.00" width="11" height="11" rx="2" ry="2" fill="#ebedf0"/>
<rect x="300.00" y="43.00" width="11" height="11" rx="2" ry="2" fill="#ebedf0"/>
<rect x="300.00" y="57.00" width="11" height="11" rx="2" ry="2" fill="#ebedf0"/>
<rect x="300.00" y="71.00" width="11" height="11" rx="2" ry="2" fill="#40c463"/>
<rect x="300.00" y="85.00" width="11" height="11" rx="2" ry="2" fill="#9be9a8"/>
<rect x="300.00" y="99.00" width="11" height="11" rx="2" ry="2" fill="#ebedf0"/>
<rect x="314.00" y="15.00" width="11" height="11" rx="2" ry="2" fill="#ebedf0"/>
<rect x="314.00" y="29.00" width="11" height="11" rx="2" ry="2" fill="#40c463"><animate attributeName="fill" dur="20s" repeatCount="indefinite" keyTimes="0;0.3282;0.3402;0.6918;0.7038;1" values="#40c463;#40c463;#39d353;#40c463;#39d353;#40c463"/></rect>
<rect x="314.00" y="43.00" width="11" height="11" rx="2" ry="2" fill="#40c463"><animate attributeName="fill" dur="20s" repeatCount="indefinite" keyTimes="0;0.3282;0.3402;0.6918;0.7038;1" values="#40c463;#40c463;#39d353;#40c463;#39d353;#40c463"/></rect>
<rect x="314.00" y="57.00" width="11" height="11" rx="2" ry="2" fill="#9be9a8"/>
<rect x="314.00" y="71.00" width="11" height="11" rx="2" ry="2" fill="#40c463"><animate attributeName="fill" dur="20s" repeatCount="indefinite" keyTimes="0;0.3282;0.3402;0.6918;0.7038;1" values="#40c463;#40c463;#39d353;#40c463;#39d353;#40c463"/></rect>
<rect x="314.00" y="85.00" width="11" height="11" rx="2" ry="2" fill="#9be9a8"/>
<rect x="314.00" y="99.00" width="11" height="11" rx="2" ry="2" fill="#9be9a8"/>
<rect x="328.00" y="15.00" width="11" height="11" rx="2" ry="2" fill="#ebedf0"/>
<rect x="328.00" y="29.00" width="11" height="11" rx="2" ry="2" fill="#ebedf0"/>
<rect x="328.00" y="43.00" width="11" height="11" rx="2" ry="2" fill="#ebedf0"/>
<rect x="328.00" y="57.00" width="11" height="11" rx="2" ry="2" fill="#ebedf0"/>
<rect x="328.00" y="71.00" width="11" height="11" rx="2" ry="2" fill="#ebedf0"/>
<rect x="328.00" y="85.00" width="11" height="11" rx="2" ry="2" fill="#ebedf0"/>
<rect x="328.00" y="99.00" width="11" height="11" rx="2" ry="2" fill="#9be9a8"/>
<rect x="342.00" y="15.00" width="11" height="11" rx="2" ry="2" fill="#9be9a8"/>
<rect x="342.00" y="29.00" width="11" height="11" rx="2" ry="2" fill="#ebedf0"/>
<rect x="342.00" y="43.00" width="11" height="11" rx="2" ry="2" fill="#ebedf0"/>
<rect x="342.00" y="57.00" width="11" height="11" rx="2" ry="2" fill="#9be9a8"/>
<rect x="342.00" y="71.00" width="11" height="11" rx="2" ry="2" fill="#ebedf0"/>
<rect x="342.00" y="85.00" width="11" height="11" rx="2" ry="2" fill="#ebedf0"/>
<rect x="342.00" y="99.00" width="11" height="11" rx="2" ry="2" fill="#9be9a8"/>
<rect x="356.00" y="15.00" width="11" height="11" rx="2" ry="2" fill="#9be9a8"/>
<rect x="356.00" y="29.00" width="11" height="11" rx="2" ry="2" fill="#ebedf0"/>
<rect x="356.00" y="43.00" width="11" height="11" rx="2" ry="2" fill="#9be9a8"/>
<rect x="356.00" y="57.00" width="11" height="11" rx="2" ry="2" fill="#9be9a8"/>
<rect x="356.00" y="71.00" width="11" height="11" rx="2" ry="2" fill="#ebedf0"/>
<rect x="356.00" y="85.00" width="11" height="11" rx="2" ry="2" fill="#ebedf0"/>
<rect x="356.00" y="99.00" width="11" height="11" rx="2" ry="2" fill="#ebedf0"/>
<rect x="370.00" y="15.00" width="11" height="11" rx="2" ry="2" fill="#9be9a8"/>
<rect x="370.00" y="29.00" width="11" height="11" rx="2" ry="2" fill="#ebedf0"/>
<rect x="370.00" y="43.00" width="11" height="11" rx="2" ry="2" fill="#ebedf0"/>
<rect x="370.00" y="57.00" width="11" height="11" rx="2" ry="2" fill="#9be9a8"/>
<rect x="370.00" y="71.00" width="11" height="11" rx="2" ry="2" fill="#ebedf0"/>
<rect x="370.00" y="85.00" width="11" height="11" rx="2" ry="2" fill="#9be9a8"/>
<rect x="370.00" y="99.00" width="11" height="11" rx="2" ry="2" fill="#ebedf0"/>
<rect x="384.00" y="15.00" width="11" height="11" rx="2" ry="2" fill="#9be9a8"/>
<rect x="384.00" y="29.00" width="11" height="11" rx="2" ry="2" fill="#9be9a8"/>
<rect x="384.00" y="43.00" width="11" height="11" rx="2" ry="2" fill="#9be9a8"/>
<rect x="384.00" y="57.00" width="11" height="11" rx="2" ry="2" fill="#9be9a8"/>
<rect x="384.00" y="71.00" width="11" height="11" rx="2" ry="2" fill="#9be9a8"/>
<rect x="384.00" y="85.00" width="11" height="11" rx="2" ry="2" fill="#9be9a8"/>
<rect x="384.00" y="99.00" width="11" height="11" rx="2" ry="2" fill="#9be9a8"/>
<rect x="398.00" y="15.00" width="11" height="11" rx="2" ry="2" fill="#ebedf0"/>
<rect x="398.00" y="29.00" width="11" height="11" rx="2" ry="2" fill="#30a14e"><animate attributeName="fill" dur="20s" repeatCount="indefinite" keyTimes="0;0.4191;0.4311;0.6009;0.6129;1" values="#30a14e;#30a14e;#39d353;#30a14e;#39d353;#30a14e"/></rect>
<rect x="398.00" y="43.00" width="11" height="11" rx="2" ry="2" fill="#30a14e"><animate attributeName="fill" dur="20s" repeatCount="indefinite" keyTimes="0;0.4191;0.4311;0.6009;0.6129;1" values="#30a14e;#30a14e;#39d353;#30a14e;#39d353;#30a14e"/></rect>
<rect x="398.00" y="57.00" width="11" height="11" rx="2" ry="2" fill="#ebedf0"/>
<rect x="398.00" y="71.00" width="11" height="11" rx="2" ry="2" fill="#ebedf0"/>
<rect x="398.00" y="85.00" width="11" height="11" rx="2" ry="2" fill="#ebedf0"/>
<rect x="398.00" y="99.00" width="11" height="11" rx="2" ry="2" fill="#ebedf0"/>
<rect x="412.00" y="15.00" width="11" height="11" rx="2" ry="2" fill="#9be9a8"/>
<rect x="412.00" y="29.00" width="11" height="11" rx="2" ry="2" fill="#ebedf0"/>
<rect x="412.00" y="43.00" width="11" height="11" rx="2" ry="2" fill="#ebedf0"/>
<rect x="412.00" y="57.00" width="11" height="11" rx="2" ry="2" fill="#9be9a8"/>
<rect x="412.00" y="71.00" width="11" height="11" rx="2" ry="2" fill="#ebedf0"/>
<rect x="412.00" y="85.00" width="11" height="11" rx="2" ry="2" fill="#ebedf0"/>
<rect x="412.00" y="99.00" width="11" height="11" rx="2" ry="2" fill="#ebedf0"/>
<rect x="426.00" y="15.00" width="11" height="11" rx="2" ry="2" fill="#ebedf0"/>
<rect x="426.00" y="29.00" width="11" height="11" rx="2" ry="2" fill="#30a14e"><animate attributeName="fill" dur="20s" repeatCount="indefinite" keyTimes="0;0.4494;0.4614;0.5706;0.5826;1" values="#30a14e;#30a14e;#39d353;#30a14e;#39d353;#30a14e"/></rect>
<rect x="426.00" y="43.00" width="11" height="11" rx="2" ry="2" fill="#ebedf0"/>
<rect x="426.00" y="57.00" width="11" height="11" rx="2" ry="2" fill="#ebedf0"/>
<rect x="426.00" y="71.00" width="11" height="11" rx="2" ry="2" fill="#ebedf0"/>
<rect x="426.00" y="85.00" width="11" height="11" rx="2" ry="2" fill="#9be9a8"/>
<rect x="426.00" y="99.00" width="11" height="11" rx="2" ry="2" fill="#216e39"><animate attributeName="fill" dur="20s" repeatCount="indefinite" keyTimes="0;0.4494;0.4614;0.5706;0.5826;1" values="#216e39;#216e39;#39d353;#216e39;#39d353;#216e39"/></rect>
<rect x="440.00" y="15.00" width="11" height="11" rx="2" ry="2" fill="#9be9a8"/>
<rect x="440.00" y="29.00" width="11" height="11" rx="2" ry="2" fill="#ebedf0"/>
<rect x="440.00" y="43.00" width="11" height="11" rx="2" ry="2" fill="#ebedf0"/>
<rect x="440.00" y="57.00" width="11" height="11" rx="2" ry="2" fill="#ebedf0"/>
<rect x="440.00" y="71.00" width="11" height="11" rx="2" ry="2" fill="#ebedf0"/>
<rect x="440.00" y="85.00" width="11" height="11" rx="2" ry="2" fill="#ebedf0"/>
<rect x="440.00" y="99.00" width="11" height="11" rx="2" ry="2" fill="#ebedf0"/>
<rect x="454.00" y="15.00" width="11" height="11" rx="2" ry="2" fill="#9be9a8"/>
<rect x="454.00" y="29.00" width="11" height="11" rx="2" ry="2" fill="#9be9a8"/>
<rect x="454.00" y="43.00" width="11" height="11" rx="2" ry="2" fill="#40c463"><animate attributeName="fill" dur="20s" repeatCount="indefinite" keyTimes="0;0.4797;0.4917;0.5403;0.5523;1" values="#40c463;#40c463;#39d353;#40c463;#39d353;#40c463"/></rect>
<rect x="454.00" y="57.00" width="11" height="11" rx="2" ry="2" fill="#9be9a8"/>
<rect x="454.00" y="71.00" width="11" height="11" rx="2" ry="2" fill="#9be9a8"/>
<rect x="454.00" y="85.00" width="11" height="11" rx="2" ry="2" fill="#ebedf0"/>
<rect x="454.00" y="99.00" width="11" height="11" rx="2" ry="2" fill="#9be9a8"/>
<rect x="468.00" y="15.00" width="11" height="11" rx="2" ry="2" fill="#9be9a8"/>
<rect x="468.00" y="29.00" width="11" height="11" rx="2" ry="2" fill="#9be9a8"/>
<rect x="468.00" y="43.00" width="11" height="11" rx="2" ry="2" fill="#9be9a8"/>
<rect x="468.00" y="57.00" width="11" height="11" rx="2" ry="2" fill="#9be9a8"/>
<rect x="468.00" y="71.00" width="11" height="11" rx="2" ry="2" fill="#9be9a8"/>
<rect x="468.00" y="85.00" width="11" height="11" rx="2" ry="2" fill="#9be9a8"/>
<rect x="468.00" y="99.00" width="11" height="11" rx="2" ry="2" fill="#9be9a8"/>
<rect x="482.00" y="15.00" width="11" height="11" rx="2" ry="2" fill="#9be9a8"/>
<rect x="482.00" y="29.00" width="11" height="11" rx="2" ry="2" fill="#9be9a8"/>
<rect x="482.00" y="43.00" width="11" height="11" rx="2" ry="2" fill="#9be9a8"/>
<rect x="482.00" y="57.00" width="11" height="11" rx="2" ry="2" fill="#9be9a8"/>
<rect x="482.00" y="71.00" width="11" height="11" rx="2" ry="2" fill="#9be9a8"/>
<rect x="482.00" y="85.00" width="11" height="11" rx="2" ry="2" fill="#9be9a8"/>
<rect x="482.00" y="99.00" width="11" height="11" rx="2" ry="2" fill="#40c463"><animate attributeName="fill" dur="20s" repeatCount="indefinite" keyTimes="0;0.51;0.522;0.51;0.522;1" values="#40c463;#40c463;#39d353;#40c463;#39d353;#40c463"/></rect>
</g>
<g id="bullets">
<circle cx="221.5" cy="124" r="2.4" fill="#7ee787"><animate attributeName="cy" dur="20s" repeatCount="indefinite" keyTimes="0;0.2121;0.2221;1" values="124;124;76.5;76.5"/><animate attributeName="opacity" dur="20s" repeatCount="indefinite" keyTimes="0;0.2121;0.2221;0.2241;1" values="0;1;1;0;0"/></circle>
<circle cx="235.5" cy="124" r="2.4" fill="#7ee787"><animate attributeName="cy" dur="20s" repeatCount="indefinite" keyTimes="0;0.2273;0.2373;1" values="124;124;104.5;104.5"/><animate attributeName="opacity" dur="20s" repeatCount="indefinite" keyTimes="0;0.2273;0.2373;0.2393;1" values="0;1;1;0;0"/></circle>
<circle cx="249.5" cy="124" r="2.4" fill="#7ee787"><animate attributeName="cy" dur="20s" repeatCount="indefinite" keyTimes="0;0.2424;0.2524;1" values="124;124;104.5;104.5"/><animate attributeName="opacity" dur="20s" repeatCount="indefinite" keyTimes="0;0.2424;0.2524;0.2544;1" values="0;1;1;0;0"/></circle>
<circle cx="319.5" cy="124" r="2.4" fill="#7ee787"><animate attributeName="cy" dur="20s" repeatCount="indefinite" keyTimes="0;0.3182;0.3282;1" values="124;124;34.5;34.5"/><animate attributeName="opacity" dur="20s" repeatCount="indefinite" keyTimes="0;0.3182;0.3282;0.3302;1" values="0;1;1;0;0"/></circle>
<circle cx="319.5" cy="124" r="2.4" fill="#7ee787"><animate attributeName="cy" dur="20s" repeatCount="indefinite" keyTimes="0;0.3182;0.3282;1" values="124;124;48.5;48.5"/><animate attributeName="opacity" dur="20s" repeatCount="indefinite" keyTimes="0;0.3182;0.3282;0.3302;1" values="0;1;1;0;0"/></circle>
<circle cx="319.5" cy="124" r="2.4" fill="#7ee787"><animate attributeName="cy" dur="20s" repeatCount="indefinite" keyTimes="0;0.3182;0.3282;1" values="124;124;76.5;76.5"/><animate attributeName="opacity" dur="20s" repeatCount="indefinite" keyTimes="0;0.3182;0.3282;0.3302;1" values="0;1;1;0;0"/></circle>
<circle cx="403.5" cy="124" r="2.4" fill="#7ee787"><animate attributeName="cy" dur="20s" repeatCount="indefinite" keyTimes="0;0.4091;0.4191;1" values="124;124;34.5;34.5"/><animate attributeName="opacity" dur="20s" repeatCount="indefinite" keyTimes="0;0.4091;0.4191;0.4211;1" values="0;1;1;0;0"/></circle>
<circle cx="403.5" cy="124" r="2.4" fill="#7ee787"><animate attributeName="cy" dur="20s" repeatCount="indefinite" keyTimes="0;0.4091;0.4191;1" values="124;124;48.5;48.5"/><animate attributeName="opacity" dur="20s" repeatCount="indefinite" keyTimes="0;0.4091;0.4191;0.4211;1" values="0;1;1;0;0"/></circle>
<circle cx="431.5" cy="124" r="2.4" fill="#7ee787"><animate attributeName="cy" dur="20s" repeatCount="indefinite" keyTimes="0;0.4394;0.4494;1" values="124;124;34.5;34.5"/><animate attributeName="opacity" dur="20s" repeatCount="indefinite" keyTimes="0;0.4394;0.4494;0.4514;1" values="0;1;1;0;0"/></circle>
<circle cx="431.5" cy="124" r="2.4" fill="#7ee787"><animate attributeName="cy" dur="20s" repeatCount="indefinite" keyTimes="0;0.4394;0.4494;1" values="124;124;104.5;104.5"/><animate attributeName="opacity" dur="20s" repeatCount="indefinite" keyTimes="0;0.4394;0.4494;0.4514;1" values="0;1;1;0;0"/></circle>
<circle cx="459.5" cy="124" r="2.4" fill="#7ee787"><animate attributeName="cy" dur="20s" repeatCount="indefinite" keyTimes="0;0.4697;0.4797;1" values="124;124;48.5;48.5"/><animate attributeName="opacity" dur="20s" repeatCount="indefinite" keyTimes="0;0.4697;0.4797;0.4817;1" values="0;1;1;0;0"/></circle>
<circle cx="487.5" cy="124" r="2.4" fill="#7ee787"><animate attributeName="cy" dur="20s" repeatCount="indefinite" keyTimes="0;0.5;0.51;1" values="124;124;104.5;104.5"/><animate attributeName="opacity" dur="20s" repeatCount="indefinite" keyTimes="0;0.5;0.51;0.512;1" values="0;1;1;0;0"/></circle>
<circle cx="487.5" cy="124" r="2.4" fill="#7ee787"><animate attributeName="cy" dur="20s" repeatCount="indefinite" keyTimes="0;0.5;0.51;1" values="124;124;104.5;104.5"/><animate attributeName="opacity" dur="20s" repeatCount="indefinite" keyTimes="0;0.5;0.51;0.512;1" values="0;1;1;0;0"/></circle>
<circle cx="459.5" cy="124" r="2.4" fill="#7ee787"><animate attributeName="cy" dur="20s" repeatCount="indefinite" keyTimes="0;0.5303;0.5403;1" values="124;124;48.5;48.5"/><animate attributeName="opacity" dur="20s" repeatCount="indefinite" keyTimes="0;0.5303;0.5403;0.5423;1" values="0;1;1;0;0"/></circle>
<circle cx="431.5" cy="124" r="2.4" fill="#7ee787"><animate attributeName="cy" dur="20s" repeatCount="indefinite" keyTimes="0;0.5606;0.5706;1" values="124;124;104.5;104.5"/><animate attributeName="opacity" dur="20s" repeatCount="indefinite" keyTimes="0;0.5606;0.5706;0.5726;1" values="0;1;1;0;0"/></circle>
<circle cx="431.5" cy="124" r="2.4" fill="#7ee787"><animate attributeName="cy" dur="20s" repeatCount="indefinite" keyTimes="0;0.5606;0.5706;1" values="124;124;34.5;34.5"/><animate attributeName="opacity" dur="20s" repeatCount="indefinite" keyTimes="0;0.5606;0.5706;0.5726;1" values="0;1;1;0;0"/></circle>
<circle cx="403.5" cy="124" r="2.4" fill="#7ee787"><animate attributeName="cy" dur="20s" repeatCount="indefinite" keyTimes="0;0.5909;0.6009;1" values="124;124;48.5;48.5"/><animate attributeName="opacity" dur="20s" repeatCount="indefinite" keyTimes="0;0.5909;0.6009;0.6029;1" values="0;1;1;0;0"/></circle>
<circle cx="403.5" cy="124" r="2.4" fill="#7ee787"><animate attributeName="cy" dur="20s" repeatCount="indefinite" keyTimes="0;0.5909;0.6009;1" values="124;124;34.5;34.5"/><animate attributeName="opacity" dur="20s" repeatCount="indefinite" keyTimes="0;0.5909;0.6009;0.6029;1" values="0;1;1;0;0"/></circle>
<circle cx="319.5" cy="124" r="2.4" fill="#7ee787"><animate attributeName="cy" dur="20s" repeatCount="indefinite" keyTimes="0;0.6818;0.6918;1" values="124;124;76.5;76.5"/><animate attributeName="opacity" dur="20s" repeatCount="indefinite" keyTimes="0;0.6818;0.6918;0.6938;1" values="0;1;1;0;0"/></circle>
<circle cx="319.5" cy="124" r="2.4" fill="#7ee787"><animate attributeName="cy" dur="20s" repeatCount="indefinite" keyTimes="0;0.6818;0.6918;1" values="124;124;48.5;48.5"/><animate attributeName="opacity" dur="20s" repeatCount="indefinite" keyTimes="0;0.6818;0.6918;0.6938;1" values="0;1;1;0;0"/></circle>
<circle cx="319.5" cy="124" r="2.4" fill="#7ee787"><animate attributeName="cy" dur="20s" repeatCount="indefinite" keyTimes="0;0.6818;0.6918;1" values="124;124;34.5;34.5"/><animate attributeName="opacity" dur="20s" repeatCount="indefinite" keyTimes="0;0.6818;0.6918;0.6938;1" values="0;1;1;0;0"/></circle>
<circle cx="249.5" cy="124" r="2.4" fill="#7ee787"><animate attributeName="cy" dur="20s" repeatCount="indefinite" keyTimes="0;0.7576;0.7676;1" values="124;124;104.5;104.5"/><animate attributeName="opacity" dur="20s" repeatCount="indefinite" keyTimes="0;0.7576;0.7676;0.7696;1" values="0;1;1;0;0"/></circle>
<circle cx="235.5" cy="124" r="2.4" fill="#7ee787"><animate attributeName="cy" dur="20s" repeatCount="indefinite" keyTimes="0;0.7727;0.7827;1" values="124;124;104.5;104.5"/><animate attributeName="opacity" dur="20s" repeatCount="indefinite" keyTimes="0;0.7727;0.7827;0.7847;1" values="0;1;1;0;0"/></circle>
<circle cx="221.5" cy="124" r="2.4" fill="#7ee787"><animate attributeName="cy" dur="20s" repeatCount="indefinite" keyTimes="0;0.7879;0.7979;1" values="124;124;76.5;76.5"/><animate attributeName="opacity" dur="20s" repeatCount="indefinite" keyTimes="0;0.7879;0.7979;0.7999;1" values="0;1;1;0;0"/></circle>
</g>
<g id="blasts">
<circle cx="221.5" cy="76.5" r="0" fill="none" stroke="#56d364" stroke-width="1.6" opacity="0"><animate attributeName="r" dur="20s" repeatCount="indefinite" keyTimes="0;0.2221;0.2361;1" values="0;1;9;9"/><animate attributeName="opacity" dur="20s" repeatCount="indefinite" keyTimes="0;0.2221;0.2361;1" values="0;1;1;0"/></circle>
<circle cx="235.5" cy="104.5" r="0" fill="none" stroke="#56d364" stroke-width="1.6" opacity="0"><animate attributeName="r" dur="20s" repeatCount="indefinite" keyTimes="0;0.2373;0.2513;1" values="0;1;9;9"/><animate attributeName="opacity" dur="20s" repeatCount="indefinite" keyTimes="0;0.2373;0.2513;1" values="0;1;1;0"/></circle>
<circle cx="249.5" cy="104.5" r="0" fill="none" stroke="#56d364" stroke-width="1.6" opacity="0"><animate attributeName="r" dur="20s" repeatCount="indefinite" keyTimes="0;0.2524;0.2664;1" values="0;1;9;9"/><animate attributeName="opacity" dur="20s" repeatCount="indefinite" keyTimes="0;0.2524;0.2664;1" values="0;1;1;0"/></circle>
<circle cx="319.5" cy="34.5" r="0" fill="none" stroke="#56d364" stroke-width="1.6" opacity="0"><animate attributeName="r" dur="20s" repeatCount="indefinite" keyTimes="0;0.3282;0.3422;1" values="0;1;9;9"/><animate attributeName="opacity" dur="20s" repeatCount="indefinite" keyTimes="0;0.3282;0.3422;1" values="0;1;1;0"/></circle>
<circle cx="319.5" cy="48.5" r="0" fill="none" stroke="#56d364" stroke-width="1.6" opacity="0"><animate attributeName="r" dur="20s" repeatCount="indefinite" keyTimes="0;0.3282;0.3422;1" values="0;1;9;9"/><animate attributeName="opacity" dur="20s" repeatCount="indefinite" keyTimes="0;0.3282;0.3422;1" values="0;1;1;0"/></circle>
<circle cx="319.5" cy="76.5" r="0" fill="none" stroke="#56d364" stroke-width="1.6" opacity="0"><animate attributeName="r" dur="20s" repeatCount="indefinite" keyTimes="0;0.3282;0.3422;1" values="0;1;9;9"/><animate attributeName="opacity" dur="20s" repeatCount="indefinite" keyTimes="0;0.3282;0.3422;1" values="0;1;1;0"/></circle>
<circle cx="403.5" cy="34.5" r="0" fill="none" stroke="#56d364" stroke-width="1.6" opacity="0"><animate attributeName="r" dur="20s" repeatCount="indefinite" keyTimes="0;0.4191;0.4331;1" values="0;1;9;9"/><animate attributeName="opacity" dur="20s" repeatCount="indefinite" keyTimes="0;0.4191;0.4331;1" values="0;1;1;0"/></circle>
<circle cx="403.5" cy="48.5" r="0" fill="none" stroke="#56d364" stroke-width="1.6" opacity="0"><animate attributeName="r" dur="20s" repeatCount="indefinite" keyTimes="0;0.4191;0.4331;1" values="0;1;9;9"/><animate attributeName="opacity" dur="20s" repeatCount="indefinite" keyTimes="0;0.4191;0.4331;1" values="0;1;1;0"/></circle>
<circle cx="431.5" cy="34.5" r="0" fill="none" stroke="#56d364" stroke-width="1.6" opacity="0"><animate attributeName="r" dur="20s" repeatCount="indefinite" keyTimes="0;0.4494;0.4634;1" values="0;1;9;9"/><animate attributeName="opacity" dur="20s" repeatCount="indefinite" keyTimes="0;0.4494;0.4634;1" values="0;1;1;0"/></circle>
<circle cx="431.5" cy="104.5" r="0" fill="none" stroke="#56d364" stroke-width="1.6" opacity="0"><animate attributeName="r" dur="20s" repeatCount="indefinite" keyTimes="0;0.4494;0.4634;1" values="0;1;9;9"/><animate attributeName="opacity" dur="20s" repeatCount="indefinite" keyTimes="0;0.4494;0.4634;1" values="0;1;1;0"/></circle>
<circle cx="459.5" cy="48.5" r="0" fill="none" stroke="#56d364" stroke-width="1.6" opacity="0"><animate attributeName="r" dur="20s" repeatCount="indefinite" keyTimes="0;0.4797;0.4937;1" values="0;1;9;9"/><animate attributeName="opacity" dur="20s" repeatCount="indefinite" keyTimes="0;0.4797;0.4937;1" values="0;1;1;0"/></circle>
<circle cx="487.5" cy="104.5" r="0" fill="none" stroke="#56d364" stroke-width="1.6" opacity="0"><animate attributeName="r" dur="20s" repeatCount="indefinite" keyTimes="0;0.51;0.524;1" values="0;1;9;9"/><animate attributeName="opacity" dur="20s" repeatCount="indefinite" keyTimes="0;0.51;0.524;1" values="0;1;1;0"/></circle>
<circle cx="487.5" cy="104.5" r="0" fill="none" stroke="#56d364" stroke-width="1.6" opacity="0"><animate attributeName="r" dur="20s" repeatCount="indefinite" keyTimes="0;0.51;0.524;1" values="0;1;9;9"/><animate attributeName="opacity" dur="20s" repeatCount="indefinite" keyTimes="0;0.51;0.524;1" values="0;1;1;0"/></circle>
<circle cx="459.5" cy="48.5" r="0" fill="none" stroke="#56d364" stroke-width="1.6" opacity="0"><animate attributeName="r" dur="20s" repeatCount="indefinite" keyTimes="0;0.5403;0.5543;1" values="0;1;9;9"/><animate attributeName="opacity" dur="20s" repeatCount="indefinite" keyTimes="0;0.5403;0.5543;1" values="0;1;1;0"/></circle>
<circle cx="431.5" cy="104.5" r="0" fill="none" stroke="#56d364" stroke-width="1.6" opacity="0"><animate attributeName="r" dur="20s" repeatCount="indefinite" keyTimes="0;0.5706;0.5846;1" values="0;1;9;9"/><animate attributeName="opacity" dur="20s" repeatCount="indefinite" keyTimes="0;0.5706;0.5846;1" values="0;1;1;0"/></circle>
<circle cx="431.5" cy="34.5" r="0" fill="none" stroke="#56d364" stroke-width="1.6" opacity="0"><animate attributeName="r" dur="20s" repeatCount="indefinite" keyTimes="0;0.5706;0.5846;1" values="0;1;9;9"/><animate attributeName="opacity" dur="20s" repeatCount="indefinite" keyTimes="0;0.5706;0.5846;1" values="0;1;1;0"/></circle>
<circle cx="403.5" cy="48.5" r="0" fill="none" stroke="#56d364" stroke-width="1.6" opacity="0"><animate attributeName="r" dur="20s" repeatCount="indefinite" keyTimes="0;0.6009;0.6149;1" values="0;1;9;9"/><animate attributeName="opacity" dur="20s" repeatCount="indefinite" keyTimes="0;0.6009;0.6149;1" values="0;1;1;0"/></circle>
<circle cx="403.5" cy="34.5" r="0" fill="none" stroke="#56d364" stroke-width="1.6" opacity="0"><animate attributeName="r" dur="20s" repeatCount="indefinite" keyTimes="0;0.6009;0.6149;1" values="0;1;9;9"/><animate attributeName="opacity" dur="20s" repeatCount="indefinite" keyTimes="0;0.6009;0.6149;1" values="0;1;1;0"/></circle>
<circle cx="319.5" cy="76.5" r="0" fill="none" stroke="#56d364" stroke-width="1.6" opacity="0"><animate attributeName="r" dur="20s" repeatCount="indefinite" keyTimes="0;0.6918;0.7058;1" values="0;1;9;9"/><animate attributeName="opacity" dur="20s" repeatCount="indefinite" keyTimes="0;0.6918;0.7058;1" values="0;1;1;0"/></circle>
<circle cx="319.5" cy="48.5" r="0" fill="none" stroke="#56d364" stroke-width="1.6" opacity="0"><animate attributeName="r" dur="20s" repeatCount="indefinite" keyTimes="0;0.6918;0.7058;1" values="0;1;9;9"/><animate attributeName="opacity" dur="20s" repeatCount="indefinite" keyTimes="0;0.6918;0.7058;1" values="0;1;1;0"/></circle>
<circle cx="319.5" cy="34.5" r="0" fill="none" stroke="#56d364" stroke-width="1.6" opacity="0"><animate attributeName="r" dur="20s" repeatCount="indefinite" keyTimes="0;0.6918;0.7058;1" values="0;1;9;9"/><animate attributeName="opacity" dur="20s" repeatCount="indefinite" keyTimes="0;0.6918;0.7058;1" values="0;1;1;0"/></circle>
<circle cx="249.5" cy="104.5" r="0" fill="none" stroke="#56d364" stroke-width="1.6" opacity="0"><animate attributeName="r" dur="20s" repeatCount="indefinite" keyTimes="0;0.7676;0.7816;1" values="0;1;9;9"/><animate attributeName="opacity" dur="20s" repeatCount="indefinite" keyTimes="0;0.7676;0.7816;1" values="0;1;1;0"/></circle>
<circle cx="235.5" cy="104.5" r="0" fill="none" stroke="#56d364" stroke-width="1.6" opacity="0"><animate attributeName="r" dur="20s" repeatCount="indefinite" keyTimes="0;0.7827;0.7967;1" values="0;1;9;9"/><animate attributeName="opacity" dur="20s" repeatCount="indefinite" keyTimes="0;0.7827;0.7967;1" values="0;1;1;0"/></circle>
<circle cx="221.5" cy="76.5" r="0" fill="none" stroke="#56d364" stroke-width="1.6" opacity="0"><animate attributeName="r" dur="20s" repeatCount="indefinite" keyTimes="0;0.7979;0.8119;1" values="0;1;9;9"/><animate attributeName="opacity" dur="20s" repeatCount="indefinite" keyTimes="0;0.7979;0.8119;1" values="0;1;1;0"/></circle>
</g>
<g id="jet">
  <g transform="translate(0,0)">
    <polygon points="0,-16 8,6 4,3 -4,3 -8,6" fill="#58a6ff" stroke="#1f6feb" stroke-width="1"/>
    <polygon points="-8,6 -14,12 -4,7" fill="#388bfd"/>
    <polygon points="8,6 14,12 4,7" fill="#388bfd"/>
    <circle cx="0" cy="-6" r="2.2" fill="#c9e6ff"/>
    <polygon points="-3,7 3,7 0,15" fill="#f0883e">
      <animate attributeName="opacity" values="0.5;1;0.6;1" dur="0.18s" repeatCount="indefinite"/>
    </polygon>
  </g>
  <animateTransform attributeName="transform" attributeType="XML" type="translate"
    dur="20s" repeatCount="indefinite"
    keyTimes="0;0.5;1"
    values="25.5,140.00;487.5,140.00;25.5,140.00"/>
</g>
</svg>